<mxfile host="app.diagrams.net" modified="2023-08-23T18:54:53.405Z" agent="Mozilla/5.0 (Windows NT 10.0; Win64; x64) AppleWebKit/537.36 (KHTML, like Gecko) Chrome/116.0.0.0 Safari/537.36" etag="j9u0C6qrZgw8Bs_VJe54" version="21.6.9" type="device">
  <diagram name="Page-1" id="MQnFzmUuvwCU3LP9MXjx">
    <mxGraphModel dx="1728" dy="640" grid="1" gridSize="10" guides="1" tooltips="1" connect="1" arrows="1" fold="1" page="1" pageScale="1" pageWidth="850" pageHeight="1100" math="0" shadow="0">
      <root>
        <mxCell id="0" />
        <mxCell id="1" parent="0" />
        <mxCell id="ic1NWFA54SJ-EZ_erXz1-9" value="" style="rounded=0;whiteSpace=wrap;html=1;dashed=1;" vertex="1" parent="1">
          <mxGeometry x="450" y="280" width="300" height="280" as="geometry" />
        </mxCell>
        <mxCell id="ic1NWFA54SJ-EZ_erXz1-8" value="" style="rounded=0;whiteSpace=wrap;html=1;dashed=1;" vertex="1" parent="1">
          <mxGeometry x="90" y="280" width="300" height="280" as="geometry" />
        </mxCell>
        <mxCell id="ic1NWFA54SJ-EZ_erXz1-1" value="MAIN WINDOW" style="rounded=0;whiteSpace=wrap;html=1;fillColor=#dae8fc;strokeColor=#6c8ebf;" vertex="1" parent="1">
          <mxGeometry x="165" y="310" width="150" height="90" as="geometry" />
        </mxCell>
        <mxCell id="ic1NWFA54SJ-EZ_erXz1-2" value="AUTO CLICKER CONTROLLER" style="rounded=0;whiteSpace=wrap;html=1;fillColor=#f8cecc;strokeColor=#b85450;" vertex="1" parent="1">
          <mxGeometry x="520" y="310" width="150" height="90" as="geometry" />
        </mxCell>
        <mxCell id="ic1NWFA54SJ-EZ_erXz1-3" value="" style="endArrow=classic;html=1;rounded=0;exitX=1;exitY=0.5;exitDx=0;exitDy=0;entryX=0;entryY=0.5;entryDx=0;entryDy=0;" edge="1" parent="1" source="ic1NWFA54SJ-EZ_erXz1-1" target="ic1NWFA54SJ-EZ_erXz1-2">
          <mxGeometry width="50" height="50" relative="1" as="geometry">
            <mxPoint x="115" y="370" as="sourcePoint" />
            <mxPoint x="165" y="320" as="targetPoint" />
          </mxGeometry>
        </mxCell>
        <mxCell id="ic1NWFA54SJ-EZ_erXz1-4" value="ABOUT WINDOW" style="rounded=0;whiteSpace=wrap;html=1;fillColor=#dae8fc;strokeColor=#6c8ebf;" vertex="1" parent="1">
          <mxGeometry x="165" y="430" width="150" height="90" as="geometry" />
        </mxCell>
        <mxCell id="ic1NWFA54SJ-EZ_erXz1-5" value="&lt;font style=&quot;font-size: 17px;&quot;&gt;Autoclicker&lt;/font&gt;&lt;br&gt;&lt;a href=&quot;data:page/id,MQnFzmUuvwCU3LP9MXjx&quot;&gt;Native vs Framework&lt;/a&gt;&lt;br&gt;&lt;br&gt;&lt;font style=&quot;&quot;&gt;&lt;span style=&quot;font-size: 21px;&quot;&gt;Architecture Blueprint&lt;/span&gt;&lt;br&gt;&lt;font style=&quot;font-size: 14px;&quot;&gt;By Henrique Fantini&lt;/font&gt;&lt;br&gt;&lt;/font&gt;" style="rounded=0;whiteSpace=wrap;html=1;" vertex="1" parent="1">
          <mxGeometry x="90" y="50" width="1010" height="140" as="geometry" />
        </mxCell>
        <mxCell id="ic1NWFA54SJ-EZ_erXz1-6" value="VIEW LAYER" style="rounded=0;whiteSpace=wrap;html=1;fontSize=30;" vertex="1" parent="1">
          <mxGeometry x="90" y="220" width="300" height="60" as="geometry" />
        </mxCell>
        <mxCell id="ic1NWFA54SJ-EZ_erXz1-7" value="CONTROL LAYER" style="rounded=0;whiteSpace=wrap;html=1;fontSize=30;" vertex="1" parent="1">
          <mxGeometry x="450" y="220" width="300" height="60" as="geometry" />
        </mxCell>
        <mxCell id="ic1NWFA54SJ-EZ_erXz1-11" value="" style="rounded=0;whiteSpace=wrap;html=1;dashed=1;" vertex="1" parent="1">
          <mxGeometry x="810" y="280" width="290" height="280" as="geometry" />
        </mxCell>
        <mxCell id="ic1NWFA54SJ-EZ_erXz1-12" value="AUTO CLICKER CONFIGURATION &lt;br&gt;MODEL" style="rounded=0;whiteSpace=wrap;html=1;fillColor=#f8cecc;strokeColor=#b85450;" vertex="1" parent="1">
          <mxGeometry x="880" y="310" width="150" height="90" as="geometry" />
        </mxCell>
        <mxCell id="ic1NWFA54SJ-EZ_erXz1-13" value="MODEL LAYER" style="rounded=0;whiteSpace=wrap;html=1;fontSize=30;" vertex="1" parent="1">
          <mxGeometry x="810" y="220" width="290" height="60" as="geometry" />
        </mxCell>
        <mxCell id="ic1NWFA54SJ-EZ_erXz1-17" value="" style="endArrow=classic;html=1;rounded=0;exitX=1;exitY=0.75;exitDx=0;exitDy=0;entryX=0.5;entryY=1;entryDx=0;entryDy=0;" edge="1" parent="1" source="ic1NWFA54SJ-EZ_erXz1-1" target="ic1NWFA54SJ-EZ_erXz1-12">
          <mxGeometry width="50" height="50" relative="1" as="geometry">
            <mxPoint x="430" y="480" as="sourcePoint" />
            <mxPoint x="480" y="430" as="targetPoint" />
            <Array as="points">
              <mxPoint x="420" y="378" />
              <mxPoint x="420" y="470" />
              <mxPoint x="955" y="470" />
            </Array>
          </mxGeometry>
        </mxCell>
        <mxCell id="ic1NWFA54SJ-EZ_erXz1-18" value="" style="endArrow=classic;html=1;rounded=0;exitX=1;exitY=0.5;exitDx=0;exitDy=0;entryX=0;entryY=0.5;entryDx=0;entryDy=0;" edge="1" parent="1" source="ic1NWFA54SJ-EZ_erXz1-2" target="ic1NWFA54SJ-EZ_erXz1-12">
          <mxGeometry width="50" height="50" relative="1" as="geometry">
            <mxPoint x="770" y="390" as="sourcePoint" />
            <mxPoint x="820" y="340" as="targetPoint" />
          </mxGeometry>
        </mxCell>
      </root>
    </mxGraphModel>
  </diagram>
</mxfile>
